<?xml version="1.0" encoding="UTF-8"?>
<svg xmlns="http://www.w3.org/2000/svg" width="1176.05" height="258.74" xmlns:xlink="http://www.w3.org/1999/xlink" viewBox="0 0 1176.05 258.74">
  <defs>
    <style>
      .cls-1 {
        fill: #44fff6;
      }

      .cls-2 {
        fill: url(#linear-gradient);
      }

      .cls-3 {
        fill: url(#linear-gradient-2);
      }

      .cls-3, .cls-4, .cls-5, .cls-6, .cls-7, .cls-8 {
        fill-rule: evenodd;
      }

      .cls-4 {
        fill: url(#linear-gradient-4);
      }

      .cls-5 {
        fill: url(#linear-gradient-3);
      }

      .cls-6 {
        fill: url(#linear-gradient-5);
      }

      .cls-7 {
        fill: url(#linear-gradient-6);
      }

      .cls-8 {
        fill: url(#linear-gradient-7);
      }
    </style>
    <linearGradient id="linear-gradient" x1="79.87" y1="252.24" x2="78.57" y2="143.49" gradientTransform="translate(0 261.49) scale(1 -1)" gradientUnits="userSpaceOnUse">
      <stop offset="0" stop-color="#65f4e1"/>
      <stop offset="1" stop-color="#ff5ee3"/>
    </linearGradient>
    <linearGradient id="linear-gradient-2" x1="82.29" y1="256.31" x2="80.9" y2="139.54" xlink:href="#linear-gradient"/>
    <linearGradient id="linear-gradient-3" x1="82.24" y1="252.21" x2="80.95" y2="143.46" xlink:href="#linear-gradient"/>
    <linearGradient id="linear-gradient-4" x1="109.59" y1="258.95" x2="108.16" y2="138.53" xlink:href="#linear-gradient"/>
    <linearGradient id="linear-gradient-5" x1="109.51" y1="251.88" x2="108.21" y2="143.13" xlink:href="#linear-gradient"/>
    <linearGradient id="linear-gradient-6" x1="55.58" y1="259.65" x2="54.14" y2="139.25" xlink:href="#linear-gradient"/>
    <linearGradient id="linear-gradient-7" x1="55.5" y1="252.53" x2="54.2" y2="143.78" xlink:href="#linear-gradient"/>
  </defs>
  <g id="COMMUNITY">
    <g>
      <path class="cls-1" d="M246.86,8.77c12.53,0,24.1,3.13,34.71,9.4,10.61,6.14,18.99,14.51,25.12,25.12,6.27,10.61,9.4,22.18,9.4,34.71,0,17.52-5.88,32.86-17.64,46.03l-10.93-10.93c8.82-10.1,13.23-21.8,13.23-35.1,0-14.83-5.31-27.49-15.92-37.97-10.48-10.61-23.14-15.92-37.97-15.92-13.3,0-24.99,4.41-35.1,13.23l-10.93-10.93c13.17-11.76,28.51-17.64,46.03-17.64Z"/>
      <path class="cls-1" d="M246.86,131.7c13.42,0,25.19-4.41,35.29-13.23l10.93,10.93c-13.17,11.76-28.58,17.64-46.22,17.64-12.4,0-23.91-3.07-34.52-9.21-10.61-6.26-19.05-14.7-25.32-25.32-6.14-10.61-9.21-22.12-9.21-34.52,0-17.64,5.88-33.05,17.64-46.22l10.93,10.93c-8.82,10.1-13.23,21.86-13.23,35.29,0,14.83,5.24,27.49,15.73,37.97,10.61,10.48,23.27,15.73,37.97,15.73Z"/>
      <polygon class="cls-1" points="627.71 147.04 627.71 52.3 643.06 38.88 643.06 147.04 627.71 147.04"/>
      <polygon class="cls-1" points="643.06 7.23 643.06 27.37 574.02 88.16 520.13 41.18 520.13 147.04 504.78 147.04 504.78 7.23 574.02 67.64 643.06 7.23"/>
      <polygon class="cls-1" points="460.84 147.04 460.84 52.3 476.19 38.88 476.19 147.04 460.84 147.04"/>
      <polygon class="cls-1" points="476.19 7.23 476.19 27.37 407.14 88.16 353.25 41.18 353.25 147.04 337.91 147.04 337.91 7.23 407.14 67.64 476.19 7.23"/>
      <polygon class="cls-1" points="939.1 80.11 939.1 60.36 954.44 75.7 954.44 95.45 939.1 80.11"/>
      <polygon class="cls-1" points="939.1 147.04 939.1 91.04 954.44 106.38 954.44 147.04 939.1 147.04"/>
      <polygon class="cls-1" points="1008.82 147.04 1008.82 75.7 1024.16 91.04 1024.16 147.04 1008.82 147.04"/>
      <polygon class="cls-1" points="1112.95 147.04 1112.95 93.34 1128.29 116.36 1128.29 147.04 1112.95 147.04"/>
      <polygon class="cls-1" points="684.7 8.77 684.7 80.11 669.35 64.77 669.35 8.77 684.7 8.77"/>
      <path class="cls-1" d="M761.6,8.77h15.34V93.34c0,10.48-2.81,20.07-8.44,28.77-5.62,8.69-13.04,15.28-22.25,19.75-2.68,1.15-5.31,2.11-7.86,2.88-4.86,1.53-9.97,2.3-15.34,2.3-14.83,0-27.49-5.24-37.97-15.73-10.48-10.48-15.73-23.14-15.73-37.97v-17.64l15.34,15.34v2.3c0,10.48,3.77,19.5,11.32,27.04,7.54,7.54,16.56,11.32,27.04,11.32h2.3c3.2-.26,6.27-.83,9.21-1.73,5.12-1.66,9.72-4.28,13.81-7.86,4.09-3.58,7.29-7.86,9.59-12.85,2.43-4.99,3.64-10.29,3.64-15.92V8.77Z"/>
      <polygon class="cls-1" points="803.13 147.04 803.13 43.29 818.47 59.97 818.47 147.04 803.13 147.04"/>
      <polygon class="cls-1" points="895.38 8.77 910.72 8.77 910.72 148.57 803.13 31.78 803.13 7.23 895.38 107.15 895.38 8.77"/>
      <polygon class="cls-1" points="939.1 8.77 954.44 8.77 954.44 64.77 939.1 49.42 939.1 8.77"/>
      <polygon class="cls-1" points="970.46 8.77 1062.71 8.77 1062.71 24.11 1024.16 24.11 1024.16 80.11 1008.82 64.77 1008.82 24.11 970.46 24.11 970.46 8.77"/>
      <polygon class="cls-1" points="1157.64 8.77 1176.05 8.77 1128.29 80.3 1128.29 102.55 1065.77 8.77 1083.8 8.77 1120.62 64 1157.64 8.77"/>
      <g>
        <path class="cls-2" d="M80.15,0c37.42,0,68.81,25.63,77.67,60.29h-33.06c-7.62-17.08-24.74-28.96-44.61-28.96-26.97,0-48.83,21.87-48.83,48.84s21.86,48.84,48.83,48.84c19.88,0,36.99-11.91,44.61-28.96h33.06c-8.83,34.66-40.25,60.29-77.67,60.29-44.26,0-80.15-35.91-80.15-80.18S35.89,0,80.15,0Zm16.72,16.66c14.6,7.62,26.47,21.69,32.88,37.72h20.48c-3.72-9.57-10.67-19.43-18.64-27.37C109.92,5.46,78.45-.25,50.56,11.88c5.74-1.52,11.62-2.31,17.4-2.31,10.24,0,20.13,2.52,28.95,7.09h-.04Zm13.64,17.58c-4.64-5.18-10.14-9.47-16.23-12.62-26.36-13.75-61.15-4.54-77.7,20.17C3.97,60.68,1.98,86.59,11.58,109.31c-1.42-5.53-2.13-11.2-2.13-16.73,0-10.24,2.52-20.13,7.09-28.92,17.43-33.46,59.74-47.43,93.97-29.38v-.03h0ZM25.16,80.25c0-11.27,3.4-21.76,9.18-30.48-5.28,4.68-9.64,10.25-12.86,16.45-4.18,8.01-6.45,17.01-6.45,26.37,0,38.07,29.3,62.21,65.16,62.21,10.31,0,20.16-2.09,29.09-5.88-5.6,1.42-11.3,2.16-16.9,2.16-10.24,0-20.13-2.51-28.95-7.09-21.68-11.31-38.34-39.49-38.34-63.69l.07-.04h0Zm24.31,45.68c4.71,5.39,10.35,9.82,16.62,13.08,8.01,4.18,17.01,6.45,26.36,6.45,25.94,0,47.06-14.28,56.62-36.76l.03-.07c.35-.85,.71-1.7,1.03-2.62h-21.05c-.28,.53-.56,1.1-.88,1.63-14.17,23.75-51.31,36.83-78.73,18.29Z"/>
        <path class="cls-3" d="M69.58,79.25l-.42-.62c-.86-1.27-1.52-2.66-1.96-4.12-.41-1.38-.62-2.82-.62-4.28s.21-2.89,.62-4.28c.44-1.47,1.1-2.85,1.96-4.12,.72-1.06,1.59-2.03,2.56-2.88,1.15-1,2.45-1.82,3.86-2.43,1.88-.82,3.87-1.23,5.94-1.23s4.06,.41,5.94,1.23c1.4,.61,2.7,1.42,3.86,2.43,.97,.85,1.83,1.82,2.56,2.88h0c.86,1.27,1.52,2.66,1.96,4.12,.41,1.38,.62,2.82,.62,4.28s-.21,2.89-.62,4.28c-.44,1.47-1.1,2.86-1.96,4.12l-.42,.62-3.58-3.18,.29-.47c.76-1.22,1.24-2.56,1.43-3.99,.06-.46,.09-.93,.09-1.38s-.03-.92-.09-1.38c-.2-1.43-.68-2.77-1.43-3.98-.62-1-1.39-1.87-2.3-2.58-1.13-.9-2.4-1.54-3.79-1.9-1.66-.43-3.47-.43-5.12,0-1.39,.36-2.66,1-3.79,1.9-.91,.72-1.68,1.59-2.3,2.59-.76,1.22-1.24,2.56-1.44,3.99-.06,.47-.09,.92-.09,1.38s.03,.92,.09,1.38c.2,1.43,.68,2.77,1.43,3.98l.29,.47-3.58,3.18Zm21.98-3.44l1.62,1.44c.59-.98,1.05-2.02,1.38-3.12,.38-1.26,.57-2.58,.57-3.9s-.19-2.64-.57-3.9c-.4-1.34-1-2.6-1.79-3.76h0c-.66-.97-1.45-1.86-2.33-2.63-1.06-.92-2.24-1.66-3.52-2.22-3.43-1.49-7.42-1.48-10.83,0-1.29,.56-2.47,1.31-3.52,2.22-.89,.78-1.67,1.66-2.33,2.63-.78,1.15-1.39,2.42-1.79,3.76-.38,1.26-.57,2.58-.57,3.9s.19,2.64,.57,3.9c.33,1.09,.79,2.14,1.38,3.12l1.62-1.44c-.69-1.24-1.14-2.6-1.34-4.02-.07-.52-.1-1.04-.1-1.56s.03-1.03,.1-1.56c.22-1.61,.77-3.13,1.62-4.51,.7-1.12,1.57-2.1,2.6-2.92,1.27-1.02,2.71-1.74,4.28-2.14,1.87-.49,3.91-.49,5.79,0,1.56,.4,3,1.13,4.28,2.15,1.02,.81,1.89,1.79,2.59,2.92,.86,1.38,1.4,2.89,1.62,4.51,.07,.53,.1,1.05,.1,1.56s-.03,1.04-.1,1.56c-.19,1.43-.64,2.78-1.34,4.03Z"/>
        <path class="cls-5" d="M93.33,62.19c-.69-1.02-1.52-1.94-2.45-2.75-1.1-.95-2.34-1.74-3.69-2.33-1.74-.75-3.66-1.17-5.68-1.17s-3.94,.42-5.68,1.17c-1.35,.59-2.59,1.37-3.69,2.33-.93,.81-1.75,1.74-2.45,2.75-.81,1.2-1.45,2.52-1.87,3.94-.39,1.3-.59,2.67-.59,4.09s.21,2.8,.59,4.09c.42,1.42,1.06,2.74,1.87,3.94l2.6-2.32c-.79-1.26-1.32-2.7-1.53-4.25-.06-.48-.1-.97-.1-1.47s.03-.99,.1-1.47c.21-1.54,.74-2.98,1.53-4.25,.65-1.05,1.48-1.98,2.45-2.75,1.17-.94,2.54-1.64,4.03-2.02,.87-.23,1.78-.35,2.73-.35s1.86,.12,2.73,.35c1.49,.39,2.86,1.09,4.03,2.02,.96,.77,1.79,1.7,2.45,2.75,.79,1.26,1.32,2.7,1.53,4.25,.06,.48,.1,.97,.1,1.47s-.03,.99-.1,1.47c-.21,1.54-.74,2.98-1.53,4.25l2.6,2.32c.81-1.19,1.45-2.52,1.87-3.94,.39-1.3,.59-2.67,.59-4.09s-.21-2.79-.59-4.09c-.42-1.42-1.06-2.74-1.87-3.94"/>
        <path class="cls-4" d="M114.15,83.16l.29-.47c.51-.81,.83-1.71,.96-2.66,.04-.3,.06-.61,.06-.92s-.02-.62-.06-.92c-.13-.95-.45-1.84-.96-2.65-.41-.66-.93-1.24-1.53-1.72-.75-.6-1.6-1.02-2.52-1.27-.55-.14-1.13-.22-1.71-.22s-1.15,.07-1.71,.22c-.92,.24-1.77,.66-2.52,1.26-.61,.48-1.12,1.06-1.53,1.72-.5,.81-.83,1.7-.96,2.65-.04,.31-.06,.62-.06,.92s.02,.61,.06,.92c.13,.95,.45,1.84,.96,2.65l.29,.47-2.77,2.45-.42-.62c-.61-.89-1.07-1.86-1.37-2.89-.29-.96-.44-1.97-.44-3s.15-2.03,.44-3c.31-1.03,.77-2,1.37-2.89,.51-.74,1.11-1.42,1.79-2.02,.81-.71,1.72-1.28,2.7-1.7,1.32-.57,2.72-.86,4.16-.86s2.84,.29,4.16,.86c.98,.42,1.89,1,2.7,1.7,.68,.59,1.28,1.27,1.79,2.02,.6,.89,1.06,1.86,1.37,2.89,.29,.97,.44,1.98,.44,3s-.15,2.03-.44,3c-.31,1.02-.77,1.99-1.37,2.88l-.42,.62-2.77-2.46Z"/>
        <path class="cls-6" d="M116.79,73.6c-.48-.7-1.04-1.33-1.68-1.89-.75-.65-1.6-1.19-2.53-1.6-1.19-.52-2.51-.8-3.9-.8s-2.7,.29-3.9,.8c-.93,.4-1.78,.94-2.53,1.6-.64,.56-1.2,1.19-1.68,1.89-.56,.82-1,1.73-1.29,2.7-.27,.89-.41,1.83-.41,2.81s.14,1.92,.41,2.81c.29,.97,.73,1.88,1.29,2.7l1.79-1.59c-.54-.87-.91-1.86-1.05-2.91-.04-.33-.07-.67-.07-1.01s.02-.68,.07-1.01c.14-1.06,.51-2.05,1.05-2.91,.45-.72,1.02-1.36,1.68-1.89,.8-.64,1.74-1.12,2.77-1.39,.6-.15,1.22-.24,1.87-.24s1.28,.08,1.87,.24c1.03,.27,1.97,.75,2.77,1.39,.66,.53,1.23,1.17,1.68,1.89,.54,.87,.91,1.86,1.05,2.91,.04,.33,.07,.67,.07,1.01s-.02,.68-.07,1.01c-.14,1.06-.51,2.05-1.05,2.91l1.79,1.59c.56-.82,.99-1.73,1.28-2.7,.27-.89,.41-1.83,.41-2.81s-.14-1.92-.41-2.81c-.29-.97-.73-1.88-1.28-2.7Z"/>
        <path class="cls-7" d="M62.89,85.61l-2.77-2.46,.29-.47c.5-.81,.83-1.7,.96-2.66,.04-.31,.06-.62,.06-.92s-.02-.61-.06-.92c-.13-.95-.45-1.84-.96-2.65-.41-.66-.93-1.24-1.53-1.72-.75-.6-1.6-1.03-2.52-1.27-1.11-.29-2.3-.29-3.41,0-.92,.24-1.77,.66-2.52,1.26-.61,.49-1.12,1.06-1.53,1.72-.51,.81-.83,1.7-.96,2.66-.04,.31-.06,.62-.06,.92s.02,.61,.06,.92c.13,.95,.45,1.84,.96,2.65l.29,.47-2.77,2.45-.42-.62c-.61-.89-1.07-1.86-1.37-2.89-.29-.96-.43-1.97-.43-3s.15-2.03,.44-3c.31-1.03,.77-2,1.37-2.89,.51-.74,1.11-1.42,1.79-2.02,.81-.71,1.72-1.28,2.7-1.7,2.64-1.14,5.68-1.14,8.32,0,.98,.42,1.89,1,2.7,1.7,.68,.59,1.28,1.27,1.79,2.02h0c.6,.89,1.06,1.86,1.37,2.89,.29,.97,.43,1.98,.43,3s-.15,2.03-.43,3c-.3,1.02-.77,1.99-1.37,2.88l-.42,.62Zm-8.23-15.65c-1.26,0-2.48,.25-3.63,.75-.86,.37-1.65,.87-2.36,1.49-.59,.52-1.12,1.11-1.57,1.76-.53,.77-.93,1.62-1.2,2.52-.25,.84-.38,1.72-.38,2.62s.13,1.78,.38,2.62c.2,.66,.46,1.28,.8,1.88l.8-.71c-.44-.84-.73-1.74-.86-2.69-.05-.37-.07-.74-.07-1.1s.02-.72,.07-1.09c.16-1.14,.54-2.21,1.14-3.18,.49-.79,1.1-1.48,1.83-2.06,.89-.72,1.91-1.23,3.01-1.51,1.33-.34,2.75-.34,4.07,0,1.11,.29,2.12,.8,3.01,1.51,.72,.57,1.33,1.26,1.83,2.06,.6,.97,.99,2.04,1.14,3.17,.05,.36,.08,.73,.08,1.1s-.03,.73-.08,1.1c-.13,.95-.42,1.85-.86,2.69l.8,.71c.34-.6,.6-1.22,.8-1.88,.25-.84,.38-1.72,.38-2.62s-.13-1.77-.38-2.62c-.27-.9-.67-1.74-1.2-2.52-.45-.65-.97-1.25-1.57-1.76-.71-.62-1.51-1.12-2.36-1.49-1.15-.5-2.37-.75-3.63-.75Z"/>
        <path class="cls-8" d="M62.77,73.6c-.48-.7-1.04-1.33-1.68-1.89-.75-.65-1.6-1.19-2.53-1.6-1.19-.52-2.51-.8-3.9-.8s-2.7,.29-3.9,.8c-.93,.4-1.78,.94-2.53,1.6-.64,.56-1.2,1.19-1.68,1.89-.56,.82-1,1.73-1.29,2.7-.27,.89-.41,1.83-.41,2.81s.14,1.92,.41,2.81c.29,.97,.73,1.88,1.29,2.7l1.79-1.59c-.54-.87-.91-1.86-1.05-2.91-.04-.33-.07-.67-.07-1.01s.02-.68,.07-1.01c.14-1.06,.51-2.05,1.05-2.91,.45-.72,1.02-1.36,1.68-1.89,.8-.64,1.74-1.12,2.77-1.39,.6-.15,1.23-.24,1.87-.24s1.28,.08,1.87,.24c1.03,.27,1.97,.75,2.77,1.39,.66,.53,1.23,1.17,1.68,1.89,.54,.87,.91,1.86,1.05,2.91,.05,.33,.07,.67,.07,1.01s-.02,.68-.07,1.01c-.14,1.06-.51,2.05-1.05,2.91l1.79,1.59c.56-.82,.99-1.73,1.28-2.7,.27-.89,.41-1.83,.41-2.81s-.14-1.92-.41-2.81c-.29-.97-.73-1.88-1.28-2.7"/>
      </g>
    </g>
  </g>
  <g id="MARKET">
    <g>
      <path class="cls-1" d="M358.79,211.72l12.56,30.05,12.6-30.05h3.84v34.05h-2.88v-14.83l.23-15.2-12.67,30.03h-2.22l-12.63-29.91,.23,14.99v14.92h-2.88v-34.05h3.81Z"/>
      <path class="cls-1" d="M462.69,236.2h-15.46l-3.51,9.56h-3.02l12.88-34.05h2.74l12.88,34.05h-2.99l-3.53-9.56Zm-14.57-2.43h13.66l-6.83-18.54-6.83,18.54Z"/>
      <path class="cls-1" d="M534.83,231.57h-9.89v14.19h-2.9v-34.05h11.06c3.63,0,6.47,.88,8.51,2.64,2.04,1.76,3.06,4.22,3.06,7.38,0,2.18-.64,4.1-1.92,5.77-1.28,1.67-2.99,2.82-5.14,3.46l8.51,14.5v.3h-3.06l-8.23-14.19Zm-9.89-2.43h8.82c2.42,0,4.36-.69,5.82-2.06s2.2-3.15,2.2-5.34c0-2.4-.76-4.27-2.29-5.6-1.53-1.33-3.67-1.99-6.43-1.99h-8.11v14.99Z"/>
      <path class="cls-1" d="M608.08,228.86l-4.79,4.72v12.18h-2.88v-34.05h2.88v18.36l17.45-18.36h3.62l-14.26,15.15,15.36,18.89h-3.51l-13.87-16.91Z"/>
      <path class="cls-1" d="M697.31,229.44h-15.93v13.89h18.31v2.43h-21.19v-34.05h21.07v2.43h-18.19v12.86h15.93v2.43Z"/>
      <path class="cls-1" d="M777.22,214.15h-11.67v31.62h-2.88v-31.62h-11.65v-2.43h26.19v2.43Z"/>
    </g>
  </g>
</svg>