<svg width="14" height="11" viewBox="0 0 14 11" fill="none" xmlns="http://www.w3.org/2000/svg">
    <path d="M6.452 10.046C6.51316 10.1348 6.595 10.2075 6.69046 10.2576C6.78593 10.3078 6.89216 10.334 7 10.334C7.10785 10.334 7.21408 10.3078 7.30954 10.2576C7.40501 10.2075 7.48684 10.1348 7.548 10.046L13.548 1.37934C13.6175 1.27937 13.6582 1.16229 13.6658 1.04081C13.6733 0.919323 13.6475 0.798085 13.591 0.690265C13.5345 0.582446 13.4496 0.492168 13.3454 0.429241C13.2412 0.366315 13.1217 0.333145 13 0.333337H1C0.878566 0.333838 0.759562 0.367434 0.655791 0.430512C0.552019 0.49359 0.467405 0.583762 0.411049 0.691332C0.354693 0.798902 0.328727 0.9198 0.335943 1.04102C0.343159 1.16225 0.383284 1.27921 0.452004 1.37934L6.452 10.046Z" fill="#70F5E5"/>
    </svg>
    